<svg width="32" height="32" viewBox="0 0 32 32" fill="none" xmlns="http://www.w3.org/2000/svg">
<path d="M0 16C0 7.16344 7.16344 0 16 0C24.8366 0 32 7.16344 32 16C32 24.8366 24.8366 32 16 32C7.16344 32 0 24.8366 0 16Z" fill="white" fill-opacity="0.01"/>
<g clip-path="url(#clip0_2246_152063)">
<mask id="mask0_2246_152063" style="mask-type:alpha" maskUnits="userSpaceOnUse" x="8" y="8" width="16" height="16">
<g clip-path="url(#clip1_2246_152063)">
<path fill-rule="evenodd" clip-rule="evenodd" d="M15 10C17.755 10 20 12.245 20 15C20 16.195 19.56 17.285 18.855 18.145L21.855 21.145V21.1499C22.05 21.3449 22.05 21.66 21.855 21.855C21.755 21.95 21.63 22 21.5 22C21.37 22 21.245 21.955 21.145 21.855L18.145 18.855C17.285 19.56 16.2 20 15 20C12.245 20 10 17.755 10 15C10 12.245 12.245 10 15 10ZM15 11C12.795 11 11 12.795 11 15C11 17.205 12.795 19 15 19C17.205 19 19 17.205 19 15C19 12.795 17.205 11 15 11Z" fill="#141414"/>
</g>
</mask>
<g mask="url(#mask0_2246_152063)">
<path d="M8 8H24V24H8V8Z" fill="#141414"/>
</g>
</g>
<defs>
<clipPath id="clip0_2246_152063">
<rect width="16" height="16" fill="white" transform="translate(8 8)"/>
</clipPath>
<clipPath id="clip1_2246_152063">
<rect width="16" height="16" fill="white" transform="translate(8 8)"/>
</clipPath>
</defs>
</svg>
