<svg width="24" height="24" viewBox="0 0 24 24" fill="none" xmlns="http://www.w3.org/2000/svg">
<path d="M0 12C0 5.37258 5.37258 0 12 0C18.6274 0 24 5.37258 24 12C24 18.6274 18.6274 24 12 24C5.37258 24 0 18.6274 0 12Z" fill="white" fill-opacity="0.01"/>
<g clip-path="url(#clip0_111_24273)">
<mask id="mask0_111_24273" style="mask-type:alpha" maskUnits="userSpaceOnUse" x="4" y="4" width="16" height="16">
<g clip-path="url(#clip1_111_24273)">
<path d="M16 6C16.825 6 17.5 6.675 17.5 7.5V10C17.5 10.275 17.275 10.5 17 10.5C16.725 10.5 16.5 10.275 16.5 10V7.5C16.5 7.225 16.275 7 16 7H7C6.725 7 6.5 7.225 6.5 7.5V16.5C6.5 16.775 6.725 17 7 17H9C9.275 17 9.5 17.225 9.5 17.5C9.5 17.775 9.275 18 9 18H7C6.175 18 5.5 17.325 5.5 16.5V7.5C5.5 6.675 6.175 6 7 6H16Z" fill="#141414"/>
<path fill-rule="evenodd" clip-rule="evenodd" d="M14.77 10C14.905 10 15.03 10.055 15.125 10.145L18.355 13.375C18.55 13.57 18.55 13.8851 18.355 14.0801L14.585 17.8501C14.49 17.9451 14.3649 17.9951 14.23 17.9951V18H11C10.725 18 10.5 17.775 10.5 17.5V14.27C10.5 14.135 10.555 14.01 10.645 13.915L14.415 10.145C14.51 10.05 14.635 10 14.77 10ZM11.5 14.4751V17H14.0249L15.7925 15.2324L13.2676 12.7075L11.5 14.4751ZM13.9727 12.0024L16.4976 14.5273L17.2949 13.73L14.77 11.2051L13.9727 12.0024Z" fill="#141414"/>
</g>
</mask>
<g mask="url(#mask0_111_24273)">
<path d="M4 4H20V20H4V4Z" fill="#141414"/>
</g>
</g>
<defs>
<clipPath id="clip0_111_24273">
<rect width="16" height="16" fill="white" transform="translate(4 4)"/>
</clipPath>
<clipPath id="clip1_111_24273">
<rect width="16" height="16" fill="white" transform="translate(4 4)"/>
</clipPath>
</defs>
</svg>
