<svg width="32" height="32" viewBox="0 0 32 32" fill="none" xmlns="http://www.w3.org/2000/svg">
<path d="M0 16C0 7.16344 7.16344 0 16 0C24.8366 0 32 7.16344 32 16C32 24.8366 24.8366 32 16 32C7.16344 32 0 24.8366 0 16Z" fill="white" fill-opacity="0.01"/>
<g clip-path="url(#clip0_2246_152074)">
<mask id="mask0_2246_152074" style="mask-type:alpha" maskUnits="userSpaceOnUse" x="8" y="8" width="16" height="16">
<g clip-path="url(#clip1_2246_152074)">
<path d="M22.5 12.5H9.5C9.225 12.5 9 12.275 9 12C9 11.725 9.225 11.5 9.5 11.5H22.5C22.775 11.5 23 11.725 23 12C23 12.275 22.775 12.5 22.5 12.5Z" fill="#141414"/>
<path d="M18.5 20.5H13.5C13.225 20.5 13 20.275 13 20C13 19.725 13.225 19.5 13.5 19.5H18.5C18.775 19.5 19 19.725 19 20C19 20.275 18.775 20.5 18.5 20.5Z" fill="#141414"/>
<path d="M20.5 16.5H11.5C11.225 16.5 11 16.275 11 16C11 15.725 11.225 15.5 11.5 15.5H20.5C20.775 15.5 21 15.725 21 16C21 16.275 20.775 16.5 20.5 16.5Z" fill="#141414"/>
</g>
</mask>
<g mask="url(#mask0_2246_152074)">
<path d="M8 8H24V24H8V8Z" fill="#141414"/>
</g>
</g>
<defs>
<clipPath id="clip0_2246_152074">
<rect width="16" height="16" fill="white" transform="translate(8 8)"/>
</clipPath>
<clipPath id="clip1_2246_152074">
<rect width="16" height="16" fill="white" transform="translate(8 8)"/>
</clipPath>
</defs>
</svg>
