<svg width="32" height="32" viewBox="0 0 32 32" fill="none" xmlns="http://www.w3.org/2000/svg">
<path d="M0 16C0 7.16344 7.16344 0 16 0C24.8366 0 32 7.16344 32 16C32 24.8366 24.8366 32 16 32C7.16344 32 0 24.8366 0 16Z" fill="white" fill-opacity="0.01"/>
<mask id="mask0_2246_152124" style="mask-type:alpha" maskUnits="userSpaceOnUse" x="8" y="8" width="16" height="16">
<g clip-path="url(#clip0_2246_152124)">
<path fill-rule="evenodd" clip-rule="evenodd" d="M20.5 10C21.325 10 22 10.675 22 11.5V20.5C22 21.325 21.325 22 20.5 22H11.5C10.675 22 10 21.325 10 20.5V11.5C10 10.675 10.675 10 11.5 10H20.5ZM16.5 21H20.5C20.775 21 21 20.775 21 20.5V18.5H16.5V21ZM11 20.5C11 20.775 11.225 21 11.5 21H15.5V18.5H11V20.5ZM16.5 17.5H21V15H16.5V17.5ZM11 17.5H15.5V15H11V17.5ZM11.5 11C11.225 11 11 11.225 11 11.5V14H21V11.5C21 11.225 20.775 11 20.5 11H11.5Z" fill="#141414"/>
</g>
</mask>
<g mask="url(#mask0_2246_152124)">
<path d="M8 8H24V24H8V8Z" fill="#141414"/>
</g>
<defs>
<clipPath id="clip0_2246_152124">
<rect width="16" height="16" fill="white" transform="translate(8 8)"/>
</clipPath>
</defs>
</svg>
