<svg width="24" height="24" viewBox="0 0 24 24" fill="none" xmlns="http://www.w3.org/2000/svg">
<g clip-path="url(#clip0_111_24214)">
<mask id="mask0_111_24214" style="mask-type:alpha" maskUnits="userSpaceOnUse" x="0" y="0" width="24" height="24">
<g clip-path="url(#clip1_111_24214)">
<path d="M15.75 3C16.1625 3 16.5 3.3375 16.5 3.75V4.5H18.75C19.9875 4.5 21 5.5125 21 6.75V18.75C21 19.9875 19.9875 21 18.75 21H5.25C4.0125 21 3 19.9875 3 18.75V12.75C3 12.3375 3.3375 12 3.75 12C4.1625 12 4.5 12.3375 4.5 12.75V18.75C4.5 19.1625 4.8375 19.5 5.25 19.5H18.75C19.1625 19.5 19.5 19.1625 19.5 18.75V6.75C19.5 6.3375 19.1625 6 18.75 6H16.5V6.75C16.5 7.1625 16.1625 7.5 15.75 7.5C15.3375 7.5 15 7.1625 15 6.75V6H12.75V6.75C12.75 7.1625 12.4125 7.5 12 7.5C11.5875 7.5 11.25 7.1625 11.25 6.75V6H9V6.75C9 7.1625 8.6625 7.5 8.25 7.5C7.8375 7.5 7.5 7.1625 7.5 6.75V6H5.25C4.8375 6 4.5 6.3375 4.5 6.75V9H14.25C14.6625 9 15 9.3375 15 9.75C15 10.1625 14.6625 10.5 14.25 10.5H3.75C3.3375 10.5 3 10.1625 3 9.75V6.75C3 5.5125 4.0125 4.5 5.25 4.5H7.5V3.75C7.5 3.3375 7.8375 3 8.25 3C8.6625 3 9 3.3375 9 3.75V4.5H11.25V3.75C11.25 3.3375 11.5875 3 12 3C12.4125 3 12.75 3.3375 12.75 3.75V4.5H15V3.75C15 3.3375 15.3375 3 15.75 3Z" fill="#141414"/>
</g>
</mask>
<g mask="url(#mask0_111_24214)">
<path d="M0 0H24V24H0V0Z" fill="#141414"/>
</g>
</g>
<defs>
<clipPath id="clip0_111_24214">
<rect width="24" height="24" fill="white"/>
</clipPath>
<clipPath id="clip1_111_24214">
<rect width="24" height="24" fill="white"/>
</clipPath>
</defs>
</svg>
