<svg width="24" height="24" viewBox="0 0 24 24" fill="none" xmlns="http://www.w3.org/2000/svg">
<g clip-path="url(#clip0_111_24224)">
<mask id="mask0_111_24224" style="mask-type:alpha" maskUnits="userSpaceOnUse" x="0" y="0" width="24" height="24">
<g clip-path="url(#clip1_111_24224)">
<path d="M12 6.75C12.4125 6.75 12.75 7.0875 12.75 7.5V8.25H14.25C14.6625 8.25 15 8.5875 15 9C15 9.4125 14.6625 9.75 14.25 9.75H11.25C10.8375 9.75 10.5 10.0875 10.5 10.5C10.5 10.9125 10.8375 11.25 11.25 11.25H12.75C13.9875 11.25 15 12.2625 15 13.5C15 14.7375 13.9875 15.75 12.75 15.75V16.5C12.75 16.9125 12.4125 17.25 12 17.25C11.5875 17.25 11.25 16.9125 11.25 16.5V15.75H9.75C9.3375 15.75 9 15.4125 9 15C9 14.5875 9.3375 14.25 9.75 14.25H12.75C13.1625 14.25 13.5 13.9125 13.5 13.5C13.5 13.0875 13.1625 12.75 12.75 12.75H11.25C10.0125 12.75 9 11.7375 9 10.5C9 9.2625 10.0125 8.25 11.25 8.25V7.5C11.25 7.0875 11.5875 6.75 12 6.75Z" fill="#141414"/>
<path fill-rule="evenodd" clip-rule="evenodd" d="M17.25 3C18.4875 3 19.5 4.0125 19.5 5.25V18.75C19.5 19.9875 18.4875 21 17.25 21H6.75C5.5125 21 4.5 19.9875 4.5 18.75V5.25C4.5 4.0125 5.5125 3 6.75 3H17.25ZM6.75 4.5C6.3375 4.5 6 4.8375 6 5.25V18.75C6 19.1625 6.3375 19.5 6.75 19.5H17.25C17.6625 19.5 18 19.1625 18 18.75V5.25C18 4.8375 17.6625 4.5 17.25 4.5H6.75Z" fill="#141414"/>
</g>
</mask>
<g mask="url(#mask0_111_24224)">
<path d="M0 0H24V24H0V0Z" fill="#141414"/>
</g>
</g>
<defs>
<clipPath id="clip0_111_24224">
<rect width="24" height="24" fill="white"/>
</clipPath>
<clipPath id="clip1_111_24224">
<rect width="24" height="24" fill="white"/>
</clipPath>
</defs>
</svg>
