<svg width="32" height="32" viewBox="0 0 32 32" fill="none" xmlns="http://www.w3.org/2000/svg">
<path d="M0 16C0 7.16344 7.16344 0 16 0C24.8366 0 32 7.16344 32 16C32 24.8366 24.8366 32 16 32C7.16344 32 0 24.8366 0 16Z" fill="white" fill-opacity="0.01"/>
<g clip-path="url(#clip0_2246_152085)">
<mask id="mask0_2246_152085" style="mask-type:alpha" maskUnits="userSpaceOnUse" x="8" y="8" width="16" height="16">
<g clip-path="url(#clip1_2246_152085)">
<path d="M21.8535 18.6079C21.6582 18.4126 21.3418 18.4126 21.1465 18.6079L19.4614 20.293V11.5C19.4614 11.2236 19.2378 11 18.9614 11C18.6851 11 18.4614 11.2236 18.4614 11.5V20.293L16.7764 18.6079C16.5811 18.4126 16.2646 18.4126 16.0693 18.6079C15.874 18.8032 15.874 19.1196 16.0693 19.3149L18.6079 21.8535C18.7056 21.9512 18.8335 22 18.9614 22C19.0894 22 19.2173 21.9512 19.3149 21.8535L21.8535 19.3149C22.0488 19.1196 22.0488 18.8032 21.8535 18.6079Z" fill="#141414"/>
<path d="M15.9307 12.6851L13.3921 10.1465C13.1968 9.95117 12.8804 9.95117 12.6851 10.1465L10.1465 12.6851C9.95117 12.8804 9.95117 13.1968 10.1465 13.3921C10.3418 13.5874 10.6582 13.5874 10.8535 13.3921L12.5386 11.707V20.5C12.5386 20.7764 12.7622 21 13.0386 21C13.3149 21 13.5386 20.7764 13.5386 20.5V11.707L15.2236 13.3921C15.3213 13.4897 15.4492 13.5386 15.5771 13.5386C15.7051 13.5386 15.833 13.4897 15.9307 13.3921C16.126 13.1968 16.126 12.8804 15.9307 12.6851Z" fill="#141414"/>
</g>
</mask>
<g mask="url(#mask0_2246_152085)">
<path d="M8 8H24V24H8V8Z" fill="#141414"/>
</g>
</g>
<defs>
<clipPath id="clip0_2246_152085">
<rect width="16" height="16" fill="white" transform="translate(8 8)"/>
</clipPath>
<clipPath id="clip1_2246_152085">
<rect width="16" height="16" fill="white" transform="translate(8 8)"/>
</clipPath>
</defs>
</svg>
