<svg width="32" height="32" viewBox="0 0 32 32" fill="none" xmlns="http://www.w3.org/2000/svg">
<path d="M0 16C0 7.16344 7.16344 0 16 0C24.8366 0 32 7.16344 32 16C32 24.8366 24.8366 32 16 32C7.16344 32 0 24.8366 0 16Z" fill="white" fill-opacity="0.01"/>
<g clip-path="url(#clip0_2246_151986)">
<mask id="mask0_2246_151986" style="mask-type:alpha" maskUnits="userSpaceOnUse" x="8" y="8" width="16" height="16">
<g clip-path="url(#clip1_2246_151986)">
<path d="M13.002 21.502V14.0022C13.002 13.726 13.2257 13.5023 13.5019 13.5023C13.7781 13.5023 14.0018 13.726 14.0018 14.0022V21.502C14.0018 21.7782 13.7781 22.0023 13.5019 22.0023C13.2257 22.0023 13.002 21.7782 13.002 21.502Z" fill="#141414"/>
<path d="M21.5017 13.5023C21.7779 13.5023 22.0021 13.726 22.0021 14.0022C22.0021 14.2784 21.7779 14.5021 21.5017 14.5021H10.5019C10.2257 14.5021 10.002 14.2784 10.002 14.0022C10.002 13.726 10.2257 13.5023 10.5019 13.5023H21.5017Z" fill="#141414"/>
<path d="M21.0023 11.5023C21.0023 11.2262 20.7785 11.0021 20.5024 11.002H11.5021C11.2259 11.002 11.0017 11.2261 11.0017 11.5023V20.5026C11.0018 20.7787 11.2259 21.0025 11.5021 21.0025H20.5024C20.7784 21.0024 21.0022 20.7786 21.0023 20.5026V11.5023ZM22.0025 20.5026C22.0024 21.331 21.3308 22.0026 20.5024 22.0027H11.5021C10.6736 22.0027 10.0021 21.3311 10.002 20.5026V11.5023C10.002 10.6738 10.6735 10.0022 11.5021 10.0022H20.5024C21.3308 10.0023 22.0025 10.6738 22.0025 11.5023V20.5026Z" fill="#141414"/>
</g>
</mask>
<g mask="url(#mask0_2246_151986)">
<path d="M8 8H24V24H8V8Z" fill="#141414"/>
</g>
</g>
<defs>
<clipPath id="clip0_2246_151986">
<rect width="16" height="16" fill="white" transform="translate(8 8)"/>
</clipPath>
<clipPath id="clip1_2246_151986">
<rect width="16" height="16" fill="white" transform="translate(8 8)"/>
</clipPath>
</defs>
</svg>
