<svg width="24" height="24" viewBox="0 0 24 24" fill="none" xmlns="http://www.w3.org/2000/svg">
<path d="M0 12C0 5.37258 5.37258 0 12 0C18.6274 0 24 5.37258 24 12C24 18.6274 18.6274 24 12 24C5.37258 24 0 18.6274 0 12Z" fill="white" fill-opacity="0.01"/>
<g clip-path="url(#clip0_111_24284)">
<mask id="mask0_111_24284" style="mask-type:alpha" maskUnits="userSpaceOnUse" x="4" y="4" width="16" height="16">
<g clip-path="url(#clip1_111_24284)">
<path fill-rule="evenodd" clip-rule="evenodd" d="M9.00025 14.9998C9.27508 14.9999 9.50014 15.2249 9.50025 15.4998V17.4998C9.50025 17.7747 9.27514 17.9996 9.00025 17.9998H7.00025C6.72525 17.9998 6.50025 17.7748 6.50025 17.4998V15.4998C6.50036 15.2249 6.72532 14.9998 7.00025 14.9998H9.00025ZM7.50025 16.9998H8.50025V15.9998H7.50025V16.9998Z" fill="#141414"/>
<path d="M18.0003 15.9998C18.2751 15.9999 18.5001 16.2249 18.5003 16.4998C18.5003 16.7747 18.2751 16.9996 18.0003 16.9998H11.5003C11.2253 16.9998 11.0003 16.7748 11.0003 16.4998C11.0004 16.2249 11.2253 15.9998 11.5003 15.9998H18.0003Z" fill="#141414"/>
<path fill-rule="evenodd" clip-rule="evenodd" d="M9.00025 10.4998C9.27508 10.4999 9.50014 10.7249 9.50025 10.9998V12.9998C9.50025 13.2747 9.27514 13.4996 9.00025 13.4998H7.00025C6.72525 13.4998 6.50025 13.2748 6.50025 12.9998V10.9998C6.50036 10.7249 6.72532 10.4998 7.00025 10.4998H9.00025ZM7.50025 12.4998H8.50025V11.4998H7.50025V12.4998Z" fill="#141414"/>
<path d="M18.0003 11.4998C18.2751 11.4999 18.5001 11.7249 18.5003 11.9998C18.5003 12.2747 18.2751 12.4996 18.0003 12.4998H11.5003C11.2253 12.4998 11.0003 12.2748 11.0003 11.9998C11.0004 11.7249 11.2253 11.4998 11.5003 11.4998H18.0003Z" fill="#141414"/>
<path d="M7.50025 8.99977H7.49C7.49162 8.99977 7.49327 8.99929 7.49488 8.99928C7.4966 8.99929 7.49853 8.99977 7.50025 8.99977Z" fill="#141414"/>
<path d="M9.1399 6.15016C9.3349 5.95516 9.64998 5.95516 9.84498 6.15016C10.0399 6.34513 10.0399 6.65976 9.84498 6.85475L7.84498 8.85475C7.74622 8.9535 7.62314 8.99817 7.49488 8.99928C7.36674 8.99797 7.24395 8.94848 7.14527 8.85475L6.14527 7.85475C5.95027 7.65975 5.95027 7.34516 6.14527 7.15016C6.34028 6.95518 6.65487 6.95516 6.84986 7.15016L7.49488 7.79518L9.1399 6.15016Z" fill="#141414"/>
<path d="M18.0003 6.99977C18.2751 6.9999 18.5001 7.22494 18.5003 7.49977C18.5003 7.77468 18.2751 7.99963 18.0003 7.99977H11.5003C11.2253 7.99977 11.0003 7.77477 11.0003 7.49977C11.0004 7.22486 11.2253 6.99977 11.5003 6.99977H18.0003Z" fill="#141414"/>
</g>
</mask>
<g mask="url(#mask0_111_24284)">
<path d="M4 4H20V20H4V4Z" fill="#141414"/>
</g>
</g>
<defs>
<clipPath id="clip0_111_24284">
<rect width="16" height="16" fill="white" transform="translate(4 4)"/>
</clipPath>
<clipPath id="clip1_111_24284">
<rect width="16" height="16" fill="white" transform="translate(4 4)"/>
</clipPath>
</defs>
</svg>
