<svg width="32" height="32" viewBox="0 0 32 32" fill="none" xmlns="http://www.w3.org/2000/svg">
<path d="M0 16C0 7.16344 7.16344 0 16 0C24.8366 0 32 7.16344 32 16C32 24.8366 24.8366 32 16 32C7.16344 32 0 24.8366 0 16Z" fill="white" fill-opacity="0.01"/>
<mask id="mask0_2246_152113" style="mask-type:alpha" maskUnits="userSpaceOnUse" x="8" y="8" width="16" height="16">
<g clip-path="url(#clip0_2246_152113)">
<path d="M13.5021 14.0022H11.0017V20.5026C11.0018 20.7784 11.2262 21.0025 11.5021 21.0025H13.0018C13.2779 21.0025 13.502 20.7787 13.5021 20.5026V14.0022ZM21.0023 14.0022H18.5023V18.0023C18.5023 18.2784 18.7261 18.5026 19.0022 18.5026H20.5024C20.7785 18.5025 21.0023 18.2784 21.0023 18.0023V14.0022ZM14.5019 16.5021H17.5021V11.002H14.5019V16.5021ZM21.0023 11.5023C21.0023 11.2265 20.7782 11.0021 20.5024 11.002H18.5023V13.002H21.0023V11.5023ZM11.0017 13.002H13.5021V11.002H11.5021C11.2262 11.002 11.0017 11.2264 11.0017 11.5023V13.002ZM22.0025 18.0023C22.0025 18.8307 21.3308 19.5023 20.5024 19.5024H19.0022C18.1738 19.5024 17.5021 18.8307 17.5021 18.0023V17.5024H14.5019V20.5026C14.5018 21.331 13.8302 22.0027 13.0018 22.0027H11.5021C10.6739 22.0027 10.002 21.3307 10.002 20.5026V11.5023C10.002 10.6741 10.6739 10.0022 11.5021 10.0022H20.5024C21.3305 10.0023 22.0025 10.6742 22.0025 11.5023V18.0023Z" fill="#141414"/>
</g>
</mask>
<g mask="url(#mask0_2246_152113)">
<path d="M8 8H24V24H8V8Z" fill="#141414"/>
</g>
<defs>
<clipPath id="clip0_2246_152113">
<rect width="16" height="16" fill="white" transform="translate(8 8)"/>
</clipPath>
</defs>
</svg>
