<svg width="32" height="32" viewBox="0 0 32 32" fill="none" xmlns="http://www.w3.org/2000/svg">
<path d="M0 16C0 7.16344 7.16344 0 16 0C24.8366 0 32 7.16344 32 16C32 24.8366 24.8366 32 16 32C7.16344 32 0 24.8366 0 16Z" fill="white" fill-opacity="0.01"/>
<g clip-path="url(#clip0_2246_152096)">
<mask id="mask0_2246_152096" style="mask-type:alpha" maskUnits="userSpaceOnUse" x="8" y="8" width="16" height="16">
<g clip-path="url(#clip1_2246_152096)">
<path d="M16.0092 13.4999C17.3874 13.4999 18.5078 14.6199 18.5078 15.9981C18.5077 17.3762 17.3873 18.4963 16.0092 18.4963H16.0049C14.6268 18.4962 13.5068 17.3762 13.5067 15.9981C13.5067 15.5562 13.6251 15.1229 13.8438 14.7466C13.9838 14.5061 14.2899 14.4273 14.5262 14.5629C14.7668 14.7029 14.8454 15.009 14.7099 15.2452C14.5786 15.4727 14.5086 15.7312 14.5086 15.9981C14.5087 16.8248 15.1824 17.4985 16.0092 17.4986C16.836 17.4986 17.5101 16.8249 17.5102 15.9981C17.5102 15.1712 16.8361 14.4971 16.0092 14.4971C15.7337 14.497 15.5106 14.2741 15.5106 13.9985C15.5106 13.7229 15.7336 13.5 16.0092 13.4999Z" fill="#141414"/>
<path fill-rule="evenodd" clip-rule="evenodd" d="M16.2455 9.00635C16.8667 9.00635 17.4311 9.39574 17.6499 9.97752L17.8909 10.6252C17.9302 10.7346 18.009 10.8264 18.1096 10.8833L19.3957 11.6315C19.4919 11.6883 19.6102 11.71 19.7195 11.6925L20.3057 11.6054C20.8789 11.5223 21.4566 11.7758 21.776 12.257L22.0383 12.6509C22.3839 13.1715 22.3708 13.8585 22.0033 14.3617L21.5704 14.9568C21.518 15.04 21.4914 15.1362 21.4914 15.2324L21.5004 16.7022C21.5004 16.7984 21.5308 16.8947 21.5833 16.9778L22.0473 17.6738C22.384 18.1813 22.3841 18.8332 22.0473 19.3363L21.767 19.752C21.4476 20.2331 20.8702 20.4866 20.2972 20.4036L19.711 20.3164C19.6016 20.2989 19.4834 20.3207 19.3871 20.3775L18.1182 21.1124C18.0132 21.1736 17.9345 21.2699 17.8951 21.388L17.7024 21.9699C17.4968 22.5868 16.928 22.9983 16.2805 22.9983H15.7251C15.0775 22.9983 14.5044 22.5868 14.3031 21.9699L14.1104 21.3837C14.071 21.2656 13.9924 21.1694 13.8874 21.1081L12.6184 20.3732C12.5222 20.3164 12.4043 20.2943 12.295 20.3117L11.7088 20.3993C11.1356 20.4824 10.5623 20.2286 10.2386 19.7473L9.95872 19.3273C9.62183 18.8242 9.62183 18.168 9.95872 17.6648L10.4223 16.9735C10.4748 16.8904 10.5056 16.7942 10.5056 16.6979V15.3021C10.5056 15.2015 10.4748 15.1096 10.4223 15.0265L9.95872 14.3352C9.62186 13.8277 9.62184 13.1758 9.95872 12.6727L10.2386 12.257C10.558 11.7758 11.1357 11.5223 11.7088 11.6054L12.295 11.6925C12.4043 11.71 12.5222 11.6883 12.6184 11.6315L13.9049 10.8833C14.0055 10.8264 14.0799 10.7346 14.1237 10.6252L14.3685 9.97752C14.5873 9.39566 15.1521 9.00635 15.7733 9.00635H16.2455ZM15.7558 9.99503C15.5502 9.99503 15.3619 10.1264 15.2875 10.3189L15.0423 10.9666C14.9198 11.2903 14.6881 11.566 14.3907 11.7366L13.1042 12.4847C12.8111 12.6553 12.4656 12.7208 12.1288 12.6727L11.5422 12.5851C11.3498 12.5546 11.1575 12.6422 11.0525 12.8039L10.7722 13.2196C10.6585 13.3858 10.6585 13.6048 10.7722 13.7755L11.2362 14.4668C11.4024 14.7161 11.49 15.0048 11.49 15.2978V16.6937C11.49 16.9911 11.4024 17.2754 11.2362 17.5247L10.7722 18.2207C10.6586 18.3913 10.6585 18.6056 10.7722 18.7761L11.0525 19.1919C11.1575 19.3536 11.3541 19.4411 11.5422 19.4106L12.1288 19.323C12.2031 19.3143 12.2732 19.3055 12.3475 19.3055H12.3604C12.6229 19.3055 12.8856 19.3755 13.1175 19.5068L14.386 20.2416C14.7054 20.4254 14.9418 20.7188 15.0555 21.0688L15.2482 21.655C15.3183 21.8606 15.5064 21.9964 15.7208 21.9964H16.2762C16.4906 21.9964 16.6831 21.8563 16.7488 21.655L16.9415 21.0688C17.0596 20.7188 17.2956 20.4254 17.6106 20.2416L18.8795 19.5068C19.1726 19.3362 19.5182 19.2707 19.855 19.3188L20.4416 19.4064C20.634 19.4369 20.8219 19.3493 20.9313 19.1876L21.2115 18.7719C21.3253 18.6056 21.3253 18.3866 21.2115 18.216L20.7475 17.5204C20.5857 17.2754 20.4981 16.991 20.4937 16.6979L20.4852 15.2277C20.4852 14.9128 20.586 14.5936 20.7698 14.3399L21.1851 13.7665C21.3076 13.6002 21.312 13.3684 21.1983 13.1978L20.936 12.8039C20.831 12.6421 20.6383 12.5545 20.4459 12.5851L19.8597 12.6727C19.5272 12.7208 19.1813 12.6553 18.8838 12.4847L17.5931 11.7366C17.2956 11.566 17.064 11.2903 16.9415 10.9666L16.6962 10.3189C16.6218 10.1264 16.4336 9.99503 16.2279 9.99503H15.7558Z" fill="#141414"/>
</g>
</mask>
<g mask="url(#mask0_2246_152096)">
<path d="M8 8H24V24H8V8Z" fill="#141414"/>
</g>
</g>
<defs>
<clipPath id="clip0_2246_152096">
<rect width="16" height="16" fill="white" transform="translate(8 8)"/>
</clipPath>
<clipPath id="clip1_2246_152096">
<rect width="16" height="16" fill="white" transform="translate(8 8)"/>
</clipPath>
</defs>
</svg>
